<svg width="21" height="25" viewBox="0 0 21 25" fill="none" xmlns="http://www.w3.org/2000/svg">
<path d="M17.104 13.2584C17.1164 12.3256 17.3727 11.411 17.8489 10.5997C18.3252 9.78838 19.006 9.10673 19.8279 8.61816C19.3057 7.89714 18.6169 7.30377 17.8161 6.88518C17.0152 6.46659 16.1245 6.23431 15.2146 6.20678C13.2736 6.0098 11.3919 7.32976 10.4028 7.32976C9.39453 7.32976 7.87166 6.22634 6.23177 6.25896C5.17105 6.2921 4.1373 6.59033 3.23123 7.12459C2.32516 7.65886 1.57768 8.41094 1.06161 9.30757C-1.17386 13.0497 0.493601 18.5493 2.635 21.5742C3.70638 23.0554 4.95853 24.7099 6.59693 24.6512C8.2002 24.5869 8.799 23.6627 10.7343 23.6627C12.6516 23.6627 13.2134 24.6512 14.8851 24.6139C16.6054 24.5869 17.6894 23.1261 18.7232 21.6309C19.493 20.5755 20.0853 19.4091 20.4783 18.1748C19.4788 17.7661 18.6258 17.0819 18.0258 16.2076C17.4257 15.3334 17.1052 14.3077 17.104 13.2584Z" fill="white"/>
<path d="M13.9466 4.21744C14.8846 3.12869 15.3467 1.72928 15.2348 0.316406C13.8017 0.461938 12.4779 1.12417 11.5272 2.17115C11.0624 2.68262 10.7064 3.27766 10.4795 3.92225C10.2527 4.56683 10.1595 5.24832 10.2052 5.92776C10.922 5.93489 11.6312 5.78468 12.2792 5.48842C12.9273 5.19217 13.4974 4.7576 13.9466 4.21744Z" fill="white"/>
</svg>
